<?xml version="1.0" encoding="UTF-8"?> <svg xmlns="http://www.w3.org/2000/svg" viewBox="0 0 124.72 42.61"><defs><style>.cls-1{fill:#636466;}.cls-2{fill:#231f20;}</style></defs><title>Asset 1</title><g id="Layer_2" data-name="Layer 2"><g id="Layer_1-2" data-name="Layer 1"><path class="cls-1" d="M3.44,39a1.37,1.37,0,0,0-1-.51A1.52,1.52,0,0,0,1,40.11a1.5,1.5,0,0,0,1.4,1.61,1.45,1.45,0,0,0,1-.51v1.11a2.42,2.42,0,0,1-1.08.29,2.52,2.52,0,0,1,0-5,2.18,2.18,0,0,1,1.06.28Z"></path><path class="cls-1" d="M8.85,42.61a2.52,2.52,0,1,1,2.36-2.52,2.35,2.35,0,0,1-2.36,2.52m0-4.11a1.61,1.61,0,0,0,0,3.19,1.61,1.61,0,0,0,0-3.19"></path><polygon class="cls-1" points="14.32 37.58 14.99 37.58 17.5 40.92 17.52 40.92 17.52 37.71 18.45 37.71 18.45 42.57 17.77 42.57 15.26 39.24 15.25 39.24 15.25 42.48 14.32 42.48 14.32 37.58"></polygon><polygon class="cls-1" points="23.33 42.48 22.4 42.48 22.4 38.52 21.44 38.52 21.44 37.71 24.29 37.71 24.29 38.52 23.33 38.52 23.33 42.48"></polygon><polygon class="cls-1" points="28.22 38.52 28.22 39.57 29.7 39.57 29.7 40.38 28.22 40.38 28.22 41.67 29.76 41.67 29.76 42.48 27.29 42.48 27.29 37.71 29.76 37.71 29.76 38.52 28.22 38.52"></polygon><polygon class="cls-1" points="36.6 39.52 36.59 39.52 35.5 42.54 35.18 42.54 34.13 39.52 34.12 39.52 33.7 42.48 32.76 42.48 33.57 37.58 34.23 37.58 35.4 40.73 36.53 37.58 37.2 37.58 37.92 42.48 36.98 42.48 36.6 39.52"></polygon><path class="cls-1" d="M41.91,42.48H41V37.71h1.27c1,0,1.65.39,1.65,1.48a1.36,1.36,0,0,1-1.52,1.51h-.47Zm0-2.56h.19c.55,0,.85-.12.85-.74s-.35-.7-.87-.7h-.17Z"></path><path class="cls-1" d="M49.12,42.61a2.52,2.52,0,1,1,2.36-2.52,2.35,2.35,0,0,1-2.36,2.52m0-4.11a1.61,1.61,0,1,0,1.39,1.55,1.46,1.46,0,0,0-1.39-1.55"></path><path class="cls-1" d="M57.82,42.48H56.69l-1.16-1.93h0v1.93h-.93V37.71h1.26c.94,0,1.59.41,1.59,1.44a1.26,1.26,0,0,1-1,1.32Zm-2.3-2.58h.12c.51,0,.87-.15.87-.73s-.37-.7-.87-.7h-.12Z"></path><path class="cls-1" d="M61.75,41.47l-.39,1h-1l1.86-4.9H63l1.81,4.9h-1l-.37-1Zm.8-2.49h0L62,40.71h1.13Z"></path><path class="cls-1" d="M70.94,42.48H69.81l-1.15-1.93h0v1.93h-.93V37.71H69c.94,0,1.6.41,1.6,1.44a1.27,1.27,0,0,1-1,1.32Zm-2.3-2.58h.12c.51,0,.88-.15.88-.73s-.38-.7-.87-.7h-.13Z"></path><polygon class="cls-1" points="73.33 37.71 74.41 37.71 75.25 39.37 76.16 37.71 77.25 37.71 75.74 40.29 75.74 42.48 74.81 42.48 74.81 40.29 73.33 37.71"></polygon><path class="cls-1" d="M85,40.86a1.93,1.93,0,0,1-.28,1.21,1.25,1.25,0,0,1-1.07.54,1.34,1.34,0,0,1-.93-.45l.59-.68a.47.47,0,0,0,.36.31c.46,0,.4-.78.4-1.09v-3H85Z"></path><polygon class="cls-1" points="89.29 38.52 89.29 39.57 90.77 39.57 90.77 40.38 89.29 40.38 89.29 41.67 90.83 41.67 90.83 42.48 88.36 42.48 88.36 37.71 90.83 37.71 90.83 38.52 89.29 38.52"></polygon><polygon class="cls-1" points="95.61 40.96 95.62 40.96 96.57 37.65 97.12 37.65 98.11 40.96 98.12 40.96 99.06 37.71 100.04 37.71 98.42 42.58 97.74 42.58 96.79 39.46 96.77 39.46 95.88 42.58 95.19 42.58 93.67 37.71 94.65 37.71 95.61 40.96"></polygon><polygon class="cls-1" points="103.87 38.52 103.87 39.57 105.35 39.57 105.35 40.38 103.87 40.38 103.87 41.67 105.41 41.67 105.41 42.48 102.94 42.48 102.94 37.71 105.41 37.71 105.41 38.52 103.87 38.52"></polygon><polygon class="cls-1" points="109.62 41.67 110.93 41.67 110.93 42.48 108.69 42.48 108.69 37.71 109.62 37.71 109.62 41.67"></polygon><path class="cls-1" d="M117.12,42.48H116l-1.16-1.92h0v1.92h-.93V37.71h1.26c.94,0,1.6.42,1.6,1.44a1.27,1.27,0,0,1-1,1.32Zm-2.3-2.57h.12c.51,0,.87-.16.87-.74s-.37-.7-.86-.7h-.13Z"></path><polygon class="cls-1" points="119.51 37.71 120.59 37.71 121.42 39.37 122.34 37.71 123.43 37.71 121.92 40.29 121.92 42.48 120.99 42.48 120.99 40.29 119.51 37.71"></polygon><polygon class="cls-2" points="0 0 21.87 22.92 21.87 1.39 25.51 1.39 25.51 31.73 3.63 8.81 3.63 30.53 0 30.53 0 0"></polygon><path class="cls-2" d="M65.66,16a15.27,15.27,0,0,1-30.53,0,15.27,15.27,0,0,1,30.53,0M62,16a11.64,11.64,0,1,0-23.27,0A11.64,11.64,0,1,0,62,16"></path><polygon class="cls-2" points="83.17 22.96 91.83 1.39 95.81 1.39 83.17 32.08 70.5 1.39 74.48 1.39 83.17 22.96"></polygon><polygon class="cls-2" points="110.79 9.01 100.8 30.53 96.89 30.53 110.8 0.15 124.72 30.53 120.82 30.53 117.49 23.23 110.79 9.01"></polygon></g></g></svg> 